<?xml version="1.0" encoding="UTF-8"?>
<svg xmlns="http://www.w3.org/2000/svg" xmlns:xlink="http://www.w3.org/1999/xlink" viewBox="0 0 100 100" width="100px" height="100px">
<g id="surface146664865">
<path style=" stroke:none;fill-rule:nonzero;fill:rgb(100%,2.745098%,2.745098%);fill-opacity:1;" d="M 50 16 C 49.746094 16 49.488281 16.097656 49.292969 16.292969 L 4.292969 61.292969 C 3.902344 61.683594 3.902344 62.316406 4.292969 62.707031 L 13.292969 71.707031 C 13.683594 72.097656 14.316406 72.097656 14.707031 71.707031 L 23 63.414062 L 31.292969 71.707031 C 31.683594 72.097656 32.316406 72.097656 32.707031 71.707031 L 41 63.414062 L 49.292969 71.707031 C 49.683594 72.097656 50.316406 72.097656 50.707031 71.707031 L 59 63.414062 L 67.292969 71.707031 C 67.683594 72.097656 68.316406 72.097656 68.707031 71.707031 L 77 63.414062 L 85.292969 71.707031 C 85.488281 71.902344 85.742188 72 86 72 C 86.257812 72 86.511719 71.902344 86.707031 71.707031 L 95.707031 62.707031 C 96.097656 62.316406 96.097656 61.683594 95.707031 61.292969 L 50.707031 16.292969 C 50.511719 16.097656 50.253906 16 50 16 Z M 50 18.414062 L 57.6875 26.101562 L 50 33.792969 L 42.3125 26.101562 Z M 41.605469 26.8125 L 49.292969 34.5 L 41 42.792969 L 33.3125 35.105469 Z M 58.394531 26.8125 L 66.6875 35.105469 L 59 42.792969 L 50.707031 34.5 Z M 50 35.207031 L 58.292969 43.5 L 50 51.792969 L 41.707031 43.5 Z M 32.605469 35.8125 L 40.292969 43.5 L 32 51.792969 L 28.105469 47.898438 C 27.910156 47.703125 27.589844 47.703125 27.398438 47.898438 C 27.203125 48.089844 27.203125 48.410156 27.398438 48.605469 L 31.292969 52.5 L 23 60.792969 L 15.3125 53.105469 L 23.605469 44.8125 L 25.359375 46.566406 C 25.457031 46.664062 25.585938 46.710938 25.714844 46.710938 C 25.839844 46.710938 25.96875 46.664062 26.066406 46.566406 C 26.261719 46.371094 26.261719 46.054688 26.066406 45.859375 L 24.3125 44.105469 Z M 67.394531 35.8125 L 75.6875 44.105469 L 68 51.792969 L 59.707031 43.5 Z M 41 44.207031 L 49.292969 52.5 L 41 60.792969 L 32.707031 52.5 Z M 59 44.207031 L 67.292969 52.5 L 59 60.792969 L 52.316406 54.113281 C 52.125 53.917969 51.804688 53.917969 51.613281 54.113281 C 51.417969 54.304688 51.417969 54.625 51.613281 54.816406 L 58.191406 61.398438 L 50 69.585938 L 41.8125 61.398438 L 50.355469 52.855469 Z M 76.394531 44.8125 L 84.6875 53.105469 L 83.679688 54.113281 C 83.488281 54.304688 83.488281 54.625 83.679688 54.816406 C 83.78125 54.914062 83.90625 54.964844 84.035156 54.964844 C 84.164062 54.964844 84.292969 54.914062 84.390625 54.816406 L 85.398438 53.8125 L 93.585938 62 L 86 69.585938 L 77.8125 61.398438 L 82.636719 56.574219 C 82.828125 56.378906 82.828125 56.058594 82.636719 55.867188 C 82.441406 55.671875 82.121094 55.671875 81.929688 55.867188 L 77 60.792969 L 68.707031 52.5 Z M 32 53.207031 L 40.1875 61.394531 L 32 69.585938 L 23.8125 61.394531 Z M 68 53.207031 L 76.1875 61.394531 L 68 69.585938 L 59.8125 61.394531 Z M 14.605469 53.8125 L 22.191406 61.398438 L 14 69.585938 L 6.414062 62 Z M 14.605469 53.8125 "/>
</g>
</svg>
