<svg fill="#000000" xmlns="http://www.w3.org/2000/svg"  viewBox="0 0 100 100" width="100px" height="100px"><path d="M 50 16 C 49.74425 16 49.488469 16.097469 49.292969 16.292969 L 4.2929688 61.292969 C 3.9019687 61.683969 3.9019687 62.316031 4.2929688 62.707031 L 13.292969 71.707031 C 13.683969 72.098031 14.316031 72.098031 14.707031 71.707031 L 23 63.414062 L 31.292969 71.707031 C 31.683969 72.098031 32.316031 72.098031 32.707031 71.707031 L 41 63.414062 L 49.292969 71.707031 C 49.683969 72.098031 50.316031 72.098031 50.707031 71.707031 L 59 63.414062 L 67.292969 71.707031 C 67.683969 72.098031 68.316031 72.098031 68.707031 71.707031 L 77 63.414062 L 85.292969 71.707031 C 85.487969 71.902031 85.744 72 86 72 C 86.256 72 86.512031 71.902031 86.707031 71.707031 L 95.707031 62.707031 C 96.098031 62.316031 96.098031 61.683969 95.707031 61.292969 L 50.707031 16.292969 C 50.511531 16.097469 50.25575 16 50 16 z M 50 18.414062 L 57.689453 26.103516 L 50 33.792969 L 42.310547 26.103516 L 50 18.414062 z M 41.603516 26.810547 L 49.292969 34.5 L 41 42.792969 L 33.310547 35.103516 L 41.603516 26.810547 z M 58.396484 26.810547 L 66.689453 35.103516 L 59 42.792969 L 50.707031 34.5 L 58.396484 26.810547 z M 50 35.207031 L 58.292969 43.5 L 50 51.792969 L 41.707031 43.5 L 50 35.207031 z M 32.603516 35.810547 L 40.292969 43.5 L 32 51.792969 L 28.103516 47.896484 C 27.908516 47.701484 27.591484 47.701484 27.396484 47.896484 C 27.201484 48.091484 27.201484 48.408516 27.396484 48.603516 L 31.292969 52.5 L 23 60.792969 L 15.310547 53.103516 L 23.603516 44.810547 L 25.359375 46.566406 C 25.457375 46.663406 25.584891 46.712891 25.712891 46.712891 C 25.840891 46.712891 25.969406 46.663406 26.066406 46.566406 C 26.261406 46.371406 26.261406 46.054375 26.066406 45.859375 L 24.310547 44.103516 L 32.603516 35.810547 z M 67.396484 35.810547 L 75.689453 44.103516 L 68 51.792969 L 59.707031 43.5 L 67.396484 35.810547 z M 41 44.207031 L 49.292969 52.5 L 41 60.792969 L 32.707031 52.5 L 41 44.207031 z M 59 44.207031 L 67.292969 52.5 L 59 60.792969 L 52.318359 54.111328 C 52.123359 53.916328 51.806328 53.916328 51.611328 54.111328 C 51.416328 54.306328 51.416328 54.623359 51.611328 54.818359 L 58.189453 61.396484 L 50 69.585938 L 41.810547 61.396484 L 50.353516 52.853516 L 59 44.207031 z M 76.396484 44.810547 L 84.689453 53.103516 L 83.681641 54.111328 C 83.486641 54.306328 83.486641 54.623359 83.681641 54.818359 C 83.779641 54.915359 83.907156 54.964844 84.035156 54.964844 C 84.163156 54.964844 84.291672 54.915359 84.388672 54.818359 L 85.396484 53.810547 L 93.585938 62 L 86 69.585938 L 77.810547 61.396484 L 82.634766 56.572266 C 82.829766 56.377266 82.829766 56.060234 82.634766 55.865234 C 82.439766 55.670234 82.122734 55.670234 81.927734 55.865234 L 77 60.792969 L 68.707031 52.5 L 76.396484 44.810547 z M 32 53.207031 L 40.189453 61.396484 L 32 69.585938 L 23.810547 61.396484 L 32 53.207031 z M 68 53.207031 L 76.189453 61.396484 L 68 69.585938 L 59.810547 61.396484 L 68 53.207031 z M 14.603516 53.810547 L 22.189453 61.396484 L 14 69.585938 L 6.4140625 62 L 14.603516 53.810547 z"/></svg>